<mxfile host="app.diagrams.net" modified="2023-07-19T07:30:25.666Z" agent="Mozilla/5.0 (Macintosh; Intel Mac OS X 10_15_7) AppleWebKit/537.36 (KHTML, like Gecko) Chrome/105.0.0.0 Safari/537.36" version="21.6.3" etag="npWdL-L_ziBIo69pSJJE" type="github">
  <diagram name="Page-1" id="rs36veVhzCaFl_DZjjDA">
    <mxGraphModel>
      <root>
        <mxCell id="0" />
        <mxCell id="1" parent="0" />
      </root>
    </mxGraphModel>
  </diagram>
</mxfile>
